<svg width="534" height="60" viewBox="0 0 534 60" fill="none" xmlns="http://www.w3.org/2000/svg">
<g filter="url(#filter0_i_202_517)">
<g clip-path="url(#clip0_202_517)">
<rect width="60" height="60" rx="30" fill="#650AFF"/>
<rect width="60" height="60" rx="30" fill="#80BFFF" fill-opacity="0.4"/>
<g clip-path="url(#clip1_202_517)">
<g filter="url(#filter1_i_202_517)">
<ellipse cx="35.177" cy="24.823" rx="25" ry="21.4286" transform="rotate(45 35.177 24.823)" fill="#9500E0"/>
<ellipse cx="35.177" cy="24.823" rx="25" ry="21.4286" transform="rotate(45 35.177 24.823)" fill="#650AFF"/>
<ellipse cx="35.177" cy="24.823" rx="25" ry="21.4286" transform="rotate(45 35.177 24.823)" fill="#80BEFF"/>
</g>
<ellipse cx="40.9601" cy="19.0399" rx="12.5" ry="10.5" transform="rotate(45 40.9601 19.0399)" fill="white"/>
</g>
</g>
</g>
<path d="M94.6 47.6C92.0667 47.6 89.8 47.1667 87.8 46.3C85.8 45.4333 84.2167 44.1667 83.05 42.5C81.9167 40.8333 81.3167 38.8167 81.25 36.45H88.7C88.7333 37.45 88.9833 38.35 89.45 39.15C89.9167 39.95 90.5833 40.5833 91.45 41.05C92.3167 41.5167 93.35 41.75 94.55 41.75C95.55 41.75 96.4167 41.6 97.15 41.3C97.9167 41 98.5167 40.55 98.95 39.95C99.4167 39.35 99.65 38.6 99.65 37.7C99.65 36.7333 99.4 35.9333 98.9 35.3C98.4333 34.6333 97.7667 34.0667 96.9 33.6C96.0667 33.1 95.1167 32.6667 94.05 32.3C92.9833 31.9333 91.8667 31.55 90.7 31.15C87.8667 30.1833 85.7 28.9333 84.2 27.4C82.7333 25.8667 82 23.85 82 21.35C82 19.2833 82.5 17.5167 83.5 16.05C84.5333 14.55 85.95 13.4 87.75 12.6C89.5833 11.8 91.65 11.4 93.95 11.4C96.35 11.4 98.45 11.8167 100.25 12.65C102.05 13.45 103.467 14.6167 104.5 16.15C105.567 17.6833 106.133 19.5 106.2 21.6H98.65C98.65 20.7333 98.4333 19.9833 98 19.35C97.6 18.6833 97.0333 18.1667 96.3 17.8C95.6 17.4 94.7667 17.2 93.8 17.2C92.9667 17.2 92.2 17.3333 91.5 17.6C90.8333 17.8333 90.3 18.2333 89.9 18.8C89.5 19.3333 89.3 20.0333 89.3 20.9C89.3 21.6667 89.4833 22.3333 89.85 22.9C90.25 23.4667 90.8 23.95 91.5 24.35C92.2 24.75 93.0333 25.15 94 25.55C94.9667 25.9167 96.05 26.3 97.25 26.7C99.0167 27.3 100.633 28.0167 102.1 28.85C103.6 29.65 104.783 30.7 105.65 32C106.55 33.3 107 35 107 37.1C107 39 106.517 40.75 105.55 42.35C104.617 43.9167 103.217 45.1833 101.35 46.15C99.5167 47.1167 97.2667 47.6 94.6 47.6ZM122.571 47.6C120.005 47.6 117.738 47.0667 115.771 46C113.805 44.9333 112.271 43.45 111.171 41.55C110.071 39.6167 109.521 37.3833 109.521 34.85C109.521 32.25 110.055 29.9667 111.121 28C112.221 26 113.755 24.4333 115.721 23.3C117.688 22.1667 119.971 21.6 122.571 21.6C125.038 21.6 127.221 22.1333 129.121 23.2C131.021 24.2667 132.505 25.7333 133.571 27.6C134.638 29.4333 135.171 31.5333 135.171 33.9C135.171 34.2333 135.155 34.6167 135.121 35.05C135.121 35.45 135.105 35.8667 135.071 36.3H114.521V32.1H128.071C127.971 30.6 127.405 29.4 126.371 28.5C125.371 27.6 124.105 27.15 122.571 27.15C121.438 27.15 120.405 27.4 119.471 27.9C118.538 28.4 117.788 29.1667 117.221 30.2C116.688 31.2333 116.421 32.55 116.421 34.15V35.6C116.421 36.8667 116.671 37.9833 117.171 38.95C117.705 39.8833 118.421 40.6167 119.321 41.15C120.255 41.65 121.305 41.9 122.471 41.9C123.671 41.9 124.671 41.65 125.471 41.15C126.271 40.6167 126.888 39.9333 127.321 39.1H134.421C133.955 40.7 133.155 42.15 132.021 43.45C130.921 44.7167 129.555 45.7333 127.921 46.5C126.321 47.2333 124.538 47.6 122.571 47.6ZM138.152 47V22.2H144.102L144.702 27.65H144.902C145.636 25.9167 146.436 24.6167 147.302 23.75C148.169 22.8833 149.169 22.3167 150.302 22.05C151.436 21.75 152.702 21.6 154.102 21.6V29H152.152C151.052 29 150.052 29.1333 149.152 29.4C148.286 29.6333 147.552 30.0167 146.952 30.55C146.352 31.0833 145.902 31.8 145.602 32.7C145.302 33.5667 145.152 34.6333 145.152 35.9V47H138.152ZM168.372 47.6C165.806 47.6 163.539 47.0667 161.572 46C159.606 44.9333 158.072 43.45 156.972 41.55C155.872 39.6167 155.322 37.3833 155.322 34.85C155.322 32.25 155.856 29.9667 156.922 28C158.022 26 159.556 24.4333 161.522 23.3C163.489 22.1667 165.772 21.6 168.372 21.6C170.839 21.6 173.022 22.1333 174.922 23.2C176.822 24.2667 178.306 25.7333 179.372 27.6C180.439 29.4333 180.972 31.5333 180.972 33.9C180.972 34.2333 180.956 34.6167 180.922 35.05C180.922 35.45 180.906 35.8667 180.872 36.3H160.322V32.1H173.872C173.772 30.6 173.206 29.4 172.172 28.5C171.172 27.6 169.906 27.15 168.372 27.15C167.239 27.15 166.206 27.4 165.272 27.9C164.339 28.4 163.589 29.1667 163.022 30.2C162.489 31.2333 162.222 32.55 162.222 34.15V35.6C162.222 36.8667 162.472 37.9833 162.972 38.95C163.506 39.8833 164.222 40.6167 165.122 41.15C166.056 41.65 167.106 41.9 168.272 41.9C169.472 41.9 170.472 41.65 171.272 41.15C172.072 40.6167 172.689 39.9333 173.122 39.1H180.222C179.756 40.7 178.956 42.15 177.822 43.45C176.722 44.7167 175.356 45.7333 173.722 46.5C172.122 47.2333 170.339 47.6 168.372 47.6ZM183.953 47V22.2H189.903L190.503 26.25H190.703C191.503 24.7833 192.586 23.65 193.953 22.85C195.32 22.0167 197.036 21.6 199.103 21.6C201.17 21.6 202.92 22.05 204.353 22.95C205.786 23.8167 206.87 25.1167 207.603 26.85C208.37 28.55 208.753 30.65 208.753 33.15V47H201.803V33.8C201.803 31.7667 201.403 30.2167 200.603 29.15C199.803 28.05 198.503 27.5 196.703 27.5C195.603 27.5 194.603 27.7667 193.703 28.3C192.836 28.8333 192.153 29.6 191.653 30.6C191.186 31.6 190.953 32.8 190.953 34.2V47H183.953ZM224.818 47.6C222.251 47.6 219.984 47.0667 218.018 46C216.051 44.9333 214.518 43.45 213.418 41.55C212.318 39.6167 211.768 37.3833 211.768 34.85C211.768 32.25 212.301 29.9667 213.368 28C214.468 26 216.001 24.4333 217.968 23.3C219.934 22.1667 222.218 21.6 224.818 21.6C227.284 21.6 229.468 22.1333 231.368 23.2C233.268 24.2667 234.751 25.7333 235.818 27.6C236.884 29.4333 237.418 31.5333 237.418 33.9C237.418 34.2333 237.401 34.6167 237.368 35.05C237.368 35.45 237.351 35.8667 237.318 36.3H216.768V32.1H230.318C230.218 30.6 229.651 29.4 228.618 28.5C227.618 27.6 226.351 27.15 224.818 27.15C223.684 27.15 222.651 27.4 221.718 27.9C220.784 28.4 220.034 29.1667 219.468 30.2C218.934 31.2333 218.668 32.55 218.668 34.15V35.6C218.668 36.8667 218.918 37.9833 219.418 38.95C219.951 39.8833 220.668 40.6167 221.568 41.15C222.501 41.65 223.551 41.9 224.718 41.9C225.918 41.9 226.918 41.65 227.718 41.15C228.518 40.6167 229.134 39.9333 229.568 39.1H236.668C236.201 40.7 235.401 42.15 234.268 43.45C233.168 44.7167 231.801 45.7333 230.168 46.5C228.568 47.2333 226.784 47.6 224.818 47.6ZM240.648 47V12H252.948C257.015 12 260.382 12.7333 263.048 14.2C265.715 15.6333 267.682 17.6667 268.948 20.3C270.248 22.9 270.898 25.9667 270.898 29.5C270.898 33 270.248 36.0667 268.948 38.7C267.682 41.3333 265.715 43.3833 263.048 44.85C260.382 46.2833 257.015 47 252.948 47H240.648ZM247.648 41H252.548C255.382 41 257.615 40.55 259.248 39.65C260.882 38.7167 262.032 37.4 262.698 35.7C263.398 33.9667 263.748 31.9 263.748 29.5C263.748 27.1 263.398 25.05 262.698 23.35C262.032 21.6167 260.882 20.2833 259.248 19.35C257.615 18.4167 255.382 17.95 252.548 17.95H247.648V41ZM274.877 47V12H289.427C291.86 12 293.91 12.3833 295.577 13.15C297.244 13.9167 298.51 14.9833 299.377 16.35C300.244 17.6833 300.677 19.25 300.677 21.05C300.677 22.7833 300.294 24.25 299.527 25.45C298.76 26.65 297.744 27.5833 296.477 28.25C295.21 28.8833 293.844 29.25 292.377 29.35L293.177 28.8C294.777 28.8667 296.194 29.3 297.427 30.1C298.694 30.9 299.677 31.95 300.377 33.25C301.11 34.5167 301.477 35.9167 301.477 37.45C301.477 39.3167 301.027 40.9833 300.127 42.45C299.227 43.8833 297.91 45 296.177 45.8C294.477 46.6 292.394 47 289.927 47H274.877ZM281.877 41.3H288.777C290.544 41.3 291.91 40.9 292.877 40.1C293.877 39.2667 294.377 38.1 294.377 36.6C294.377 35.1 293.86 33.9167 292.827 33.05C291.827 32.1833 290.444 31.75 288.677 31.75H281.877V41.3ZM281.877 26.55H288.277C289.977 26.55 291.277 26.1667 292.177 25.4C293.077 24.6 293.527 23.4833 293.527 22.05C293.527 20.65 293.077 19.5667 292.177 18.8C291.277 18 289.96 17.6 288.227 17.6H281.877V26.55Z" fill="black"/>
<defs>
<filter id="filter0_i_202_517" x="0" y="-10" width="60" height="70" filterUnits="userSpaceOnUse" color-interpolation-filters="sRGB">
<feFlood flood-opacity="0" result="BackgroundImageFix"/>
<feBlend mode="normal" in="SourceGraphic" in2="BackgroundImageFix" result="shape"/>
<feColorMatrix in="SourceAlpha" type="matrix" values="0 0 0 0 0 0 0 0 0 0 0 0 0 0 0 0 0 0 127 0" result="hardAlpha"/>
<feOffset dy="-10"/>
<feGaussianBlur stdDeviation="10"/>
<feComposite in2="hardAlpha" operator="arithmetic" k2="-1" k3="1"/>
<feColorMatrix type="matrix" values="0 0 0 0 1 0 0 0 0 0.5 0 0 0 0 0.833333 0 0 0 0.5 0"/>
<feBlend mode="normal" in2="shape" result="effect1_innerShadow_202_517"/>
</filter>
<filter id="filter1_i_202_517" x="11.8938" y="-3.46033" width="46.5664" height="51.5666" filterUnits="userSpaceOnUse" color-interpolation-filters="sRGB">
<feFlood flood-opacity="0" result="BackgroundImageFix"/>
<feBlend mode="normal" in="SourceGraphic" in2="BackgroundImageFix" result="shape"/>
<feColorMatrix in="SourceAlpha" type="matrix" values="0 0 0 0 0 0 0 0 0 0 0 0 0 0 0 0 0 0 127 0" result="hardAlpha"/>
<feOffset dy="-5"/>
<feGaussianBlur stdDeviation="5"/>
<feComposite in2="hardAlpha" operator="arithmetic" k2="-1" k3="1"/>
<feColorMatrix type="matrix" values="0 0 0 0 1 0 0 0 0 1 0 0 0 0 1 0 0 0 0.25 0"/>
<feBlend mode="normal" in2="shape" result="effect1_innerShadow_202_517"/>
</filter>
<clipPath id="clip0_202_517">
<rect width="60" height="60" rx="30" fill="white"/>
</clipPath>
<clipPath id="clip1_202_517">
<rect width="60" height="60" fill="white" transform="translate(30 -12.4264) rotate(45)"/>
</clipPath>
</defs>
<line x1="316.0" y1="14.0" x2="316.0" y2="46.0" stroke="black" stroke-opacity="0.25" stroke-width="1"/>
<path d="M331.948 47.0V14.100000000000001H335.238V47.0Z M342.63399999999996 47.0V14.100000000000001H352.739Q356.59299999999996 14.100000000000001 358.99 15.369000000000002Q361.387 16.638 362.5385 18.7765Q363.69 20.915 363.69 23.641Q363.69 26.32 362.5385 28.482Q361.387 30.644 358.943 31.9365Q356.49899999999997 33.229 352.59799999999996 33.229H345.924V47.0ZM360.16499999999996 47.0 352.786 32.195H356.49899999999997L364.066 47.0ZM345.924 30.597H352.50399999999996Q356.452 30.597 358.379 28.717Q360.306 26.837 360.306 23.641Q360.306 20.445 358.426 18.659Q356.546 16.873 352.50399999999996 16.873H345.924Z M378.183 47.564Q374.893 47.564 372.42549999999994 45.942499999999995Q369.95799999999997 44.321 368.59499999999997 41.407Q367.23199999999997 38.493 367.23199999999997 34.638999999999996Q367.23199999999997 30.644 368.6185 27.7535Q370.005 24.863 372.496 23.2885Q374.98699999999997 21.714 378.22999999999996 21.714Q381.849 21.714 384.19899999999996 23.311999999999998Q386.549 24.91 387.724 27.5655Q388.899 30.221 388.899 33.510999999999996Q388.899 33.934 388.899 34.3805Q388.899 34.827 388.852 35.438H369.62899999999996V32.853H385.703Q385.656 28.67 383.56449999999995 26.602Q381.47299999999996 24.534 378.13599999999997 24.534Q376.11499999999995 24.534 374.35249999999996 25.521Q372.59 26.508 371.509 28.552500000000002Q370.428 30.597 370.428 33.746V34.874Q370.428 38.164 371.4855 40.3495Q372.543 42.535 374.32899999999995 43.6395Q376.11499999999995 44.744 378.183 44.744Q381.04999999999995 44.744 382.64799999999997 43.6395Q384.246 42.535 384.998 40.467H388.28799999999995Q387.67699999999996 42.488 386.361 44.1095Q385.04499999999996 45.731 383.0005 46.6475Q380.95599999999996 47.564 378.183 47.564Z M402.734 47.564Q399.63199999999995 47.564 397.4934999999999 46.623999999999995Q395.35499999999996 45.684 394.20349999999996 43.8745Q393.05199999999996 42.065 392.81699999999995 39.574H396.20099999999996Q396.38899999999995 41.078 397.188 42.253Q397.98699999999997 43.428 399.39699999999993 44.086Q400.80699999999996 44.744 402.78099999999995 44.744Q404.52 44.744 405.74199999999996 44.18Q406.964 43.616 407.62199999999996 42.6055Q408.28 41.595 408.28 40.373Q408.28 38.681 407.59849999999994 37.7175Q406.917 36.754 405.554 36.26049999999999Q404.191 35.766999999999996 402.123 35.485Q400.102 35.203 398.5275 34.686Q396.953 34.169 395.87199999999996 33.323Q394.791 32.477000000000004 394.2505 31.255000000000003Q393.71 30.033 393.71 28.388Q393.71 26.414 394.74399999999997 24.91Q395.77799999999996 23.406 397.7049999999999 22.56Q399.63199999999995 21.714 402.311 21.714Q406.07099999999997 21.714 408.37399999999997 23.5235Q410.67699999999996 25.333 411.053 28.717H407.80999999999995Q407.62199999999996 26.79 406.1885 25.662Q404.755 24.534 402.26399999999995 24.534Q399.679 24.534 398.36299999999994 25.5445Q397.04699999999997 26.555 397.04699999999997 28.2Q397.04699999999997 29.281 397.611 30.197499999999998Q398.17499999999995 31.114 399.491 31.7485Q400.80699999999996 32.382999999999996 403.10999999999996 32.712Q405.74199999999996 33.088 407.669 33.793Q409.59599999999995 34.498 410.63 35.9785Q411.664 37.459 411.664 40.091Q411.664 42.347 410.55949999999996 44.039Q409.455 45.731 407.4575 46.6475Q405.46 47.564 402.734 47.564Z M427.144 47.564Q423.854 47.564 421.38649999999996 45.942499999999995Q418.919 44.321 417.556 41.407Q416.193 38.493 416.193 34.638999999999996Q416.193 30.644 417.5795 27.7535Q418.966 24.863 421.457 23.2885Q423.948 21.714 427.191 21.714Q430.81 21.714 433.15999999999997 23.311999999999998Q435.51 24.91 436.685 27.5655Q437.86 30.221 437.86 33.510999999999996Q437.86 33.934 437.86 34.3805Q437.86 34.827 437.813 35.438H418.59V32.853H434.664Q434.617 28.67 432.52549999999997 26.602Q430.43399999999997 24.534 427.097 24.534Q425.07599999999996 24.534 423.3135 25.521Q421.551 26.508 420.47 28.552500000000002Q419.389 30.597 419.389 33.746V34.874Q419.389 38.164 420.4465 40.3495Q421.504 42.535 423.28999999999996 43.6395Q425.07599999999996 44.744 427.144 44.744Q430.01099999999997 44.744 431.609 43.6395Q433.207 42.535 433.959 40.467H437.24899999999997Q436.638 42.488 435.322 44.1095Q434.006 45.731 431.9615 46.6475Q429.917 47.564 427.144 47.564Z M450.238 47.564Q447.55899999999997 47.564 445.726 46.5065Q443.893 45.449 442.9765 43.7335Q442.06 42.018 442.06 40.044Q442.06 37.459 443.2585 35.7435Q444.457 34.028 446.6425 33.158500000000004Q448.828 32.289 451.695 32.289H458.087Q458.087 29.751 457.4995 28.0355Q456.912 26.32 455.5725 25.427Q454.233 24.534 452.024 24.534Q449.627 24.534 448.0525 25.662Q446.478 26.79 446.102 29.046H442.71799999999996Q443.04699999999997 26.649 444.36299999999994 25.003999999999998Q445.679 23.358999999999998 447.6765 22.536499999999997Q449.674 21.714 452.024 21.714Q455.31399999999996 21.714 457.38199999999995 22.982999999999997Q459.45 24.252 460.4135 26.484499999999997Q461.377 28.717 461.377 31.631V47.0H458.46299999999997L458.181 42.582Q457.758 43.475 457.0765 44.368Q456.395 45.261 455.43149999999997 45.98950000000001Q454.46799999999996 46.718 453.17549999999994 47.141000000000005Q451.883 47.564 450.238 47.564ZM450.755 44.744Q452.447 44.744 453.81 44.0155Q455.173 43.287 456.113 42.065Q457.053 40.843 457.57 39.339Q458.087 37.835 458.087 36.237V34.874H451.977Q449.58 34.874 448.16999999999996 35.5085Q446.76 36.143 446.149 37.271Q445.538 38.399 445.538 39.903Q445.538 41.313 446.149 42.394000000000005Q446.76 43.475 447.935 44.1095Q449.11 44.744 450.755 44.744Z M467.692 47.0V22.278H470.653L470.935 26.837Q471.828 25.051 473.2145 23.923000000000002Q474.601 22.795 476.5045 22.2545Q478.408 21.714 480.899 21.714V25.145H478.549Q477.233 25.145 475.8935 25.497500000000002Q474.554 25.85 473.4495 26.743000000000002Q472.345 27.636 471.6635 29.1635Q470.98199999999997 30.691 470.98199999999997 33.088V47.0Z M494.452 47.564Q491.16200000000003 47.564 488.6005 45.942499999999995Q486.039 44.321 484.582 41.430499999999995Q483.125 38.54 483.125 34.733000000000004Q483.125 30.738 484.6055 27.823999999999998Q486.086 24.91 488.64750000000004 23.311999999999998Q491.209 21.714 494.452 21.714Q498.776 21.714 501.549 23.923000000000002Q504.322 26.132 505.074 29.798H501.69Q501.173 27.307 499.22249999999997 25.944Q497.272 24.581 494.40500000000003 24.581Q492.196 24.581 490.41 25.685499999999998Q488.624 26.79 487.5665 29.046Q486.509 31.302 486.509 34.733000000000004Q486.509 37.224000000000004 487.12 39.104Q487.731 40.984 488.8355 42.2295Q489.94 43.475 491.37350000000004 44.1095Q492.807 44.744 494.40500000000003 44.744Q496.238 44.744 497.7655 44.132999999999996Q499.293 43.522 500.327 42.323499999999996Q501.361 41.125 501.69 39.480000000000004H505.074Q504.322 43.052 501.52549999999997 45.308Q498.729 47.564 494.452 47.564Z M510.449 47.0V13.159999999999997H513.739V26.696Q514.961 24.346 517.0995 23.03Q519.238 21.714 521.87 21.714Q524.737 21.714 526.711 22.7715Q528.685 23.829 529.6955 25.9675Q530.706 28.106 530.706 31.302V47.0H527.463V31.678Q527.463 28.106 525.8415 26.3435Q524.22 24.581 521.212 24.581Q519.097 24.581 517.405 25.615000000000002Q515.713 26.649 514.726 28.529Q513.739 30.409 513.739 32.994V47.0Z" fill="black"/>
</svg>
