<svg width="14" height="11" viewBox="0 0 14 11" fill="none" xmlns="http://www.w3.org/2000/svg">
<path d="M13 5.50012H1M13 5.50012V8.875C13 9.17337 12.8736 9.45952 12.6485 9.67049C12.4235 9.88147 12.1183 10 11.8 10H2.2C1.88174 10 1.57652 9.88147 1.35147 9.67049C1.12643 9.45952 1 9.17337 1 8.875V5.50012M13 5.50012L10.93 1.62438C10.8307 1.43694 10.6775 1.27921 10.4878 1.16891C10.298 1.05861 10.0793 1.00011 9.856 1H4.144C3.92075 1.00011 3.70196 1.05861 3.51223 1.16891C3.3225 1.27921 3.16935 1.43694 3.07 1.62438L1 5.50012M3.40025 7.75H3.40525M5.80049 7.75H5.80549" stroke="currentColor" stroke-linecap="round" stroke-linejoin="round"/>
</svg>
