<svg width="12" height="12" viewBox="0 0 12 12" fill="none" xmlns="http://www.w3.org/2000/svg">
<path fill-rule="evenodd" clip-rule="evenodd" d="M6 0C2.685 0 0 2.75292 0 6.15175C0 8.8739 1.7175 11.1731 4.1025 11.9882C4.4025 12.0421 4.515 11.8575 4.515 11.696C4.515 11.5499 4.5075 11.0655 4.5075 10.5503C3 10.8348 2.61 10.1735 2.49 9.82745C2.4225 9.6506 2.13 9.1046 1.875 8.9585C1.665 8.84315 1.365 8.55865 1.8675 8.55095C2.34 8.54325 2.6775 8.99695 2.79 9.1815C3.33 10.112 4.1925 9.8505 4.5375 9.68905C4.59 9.28915 4.7475 9.02 4.92 8.86625C3.585 8.71245 2.19 8.18185 2.19 5.8288C2.19 5.1598 2.4225 4.60613 2.805 4.17551C2.745 4.02171 2.535 3.39116 2.865 2.54529C2.865 2.54529 3.3675 2.38381 4.515 3.17585C4.99498 3.03743 5.50502 2.96823 6.01502 2.96823C6.52502 2.96823 7.03502 3.03743 7.51502 3.17585C8.66251 2.37612 9.16502 2.54529 9.16502 2.54529C9.49498 3.39116 9.28502 4.02171 9.22502 4.17551C9.60749 4.60613 9.84 5.1521 9.84 5.8288C9.84 8.18955 8.43749 8.71245 7.10251 8.86625C7.32 9.05845 7.50749 9.4276 7.50749 10.0043C7.50749 10.8271 7.5 11.4884 7.5 11.696C7.5 11.8575 7.61251 12.0497 7.91251 11.9882C10.2825 11.1731 12 8.86625 12 6.15175C12 2.75292 9.31498 0 6 0Z" fill="currentColor"/>
</svg>
