<svg width="11" height="11" viewBox="0 0 11 11" fill="none" xmlns="http://www.w3.org/2000/svg">
<path d="M10.0234 1L9.07013 1.94612M9.07013 1.94612L10.5 3.3653L8.83182 5.02101L7.40195 3.60183M9.07013 1.94612L7.40195 3.60183M5.44304 5.54611C5.68913 5.78712 5.88477 6.07406 6.01868 6.39042C6.15259 6.70678 6.22212 7.04631 6.22328 7.38945C6.22444 7.73259 6.1572 8.07257 6.02543 8.38982C5.89366 8.70706 5.69996 8.9953 5.4555 9.23794C5.21103 9.48058 4.92062 9.67283 4.60099 9.80361C4.28135 9.9344 3.93881 10.0011 3.59309 9.99999C3.24736 9.99884 2.90528 9.92982 2.58654 9.79691C2.26779 9.66401 1.97869 9.46983 1.73586 9.22557C1.25835 8.73486 0.994126 8.07763 1.0001 7.39544C1.00607 6.71325 1.28176 6.06068 1.7678 5.57828C2.25383 5.09588 2.91132 4.82224 3.59865 4.81632C4.28597 4.81039 4.94815 5.07264 5.44256 5.54658L5.44304 5.54611ZM5.44304 5.54611L7.40195 3.60183" stroke="currentColor" stroke-linecap="round" stroke-linejoin="round"/>
</svg>
