<svg width="10" height="10" viewBox="0 0 10 10" fill="none" xmlns="http://www.w3.org/2000/svg">
<path d="M5.29171 2.58334C5.40677 2.58334 5.50004 2.49006 5.50004 2.37501C5.50004 2.25995 5.40677 2.16667 5.29171 2.16667C5.17665 2.16667 5.08337 2.25995 5.08337 2.37501C5.08337 2.49006 5.17665 2.58334 5.29171 2.58334Z" stroke="white" stroke-opacity="0.3" stroke-linecap="round" stroke-linejoin="round"/>
<path d="M6.95833 4.25001C7.07339 4.25001 7.16667 4.15674 7.16667 4.04168C7.16667 3.92662 7.07339 3.83334 6.95833 3.83334C6.84327 3.83334 6.75 3.92662 6.75 4.04168C6.75 4.15674 6.84327 4.25001 6.95833 4.25001Z" stroke="white" stroke-opacity="0.3" stroke-linecap="round" stroke-linejoin="round"/>
<path d="M3.20833 3.00001C3.32339 3.00001 3.41667 2.90674 3.41667 2.79168C3.41667 2.67662 3.32339 2.58334 3.20833 2.58334C3.09327 2.58334 3 2.67662 3 2.79168C3 2.90674 3.09327 3.00001 3.20833 3.00001Z" stroke="white" stroke-opacity="0.3" stroke-linecap="round" stroke-linejoin="round"/>
<path d="M2.37502 5.08334C2.49008 5.08334 2.58335 4.99006 2.58335 4.87501C2.58335 4.75995 2.49008 4.66667 2.37502 4.66667C2.25996 4.66667 2.16669 4.75995 2.16669 4.87501C2.16669 4.99006 2.25996 5.08334 2.37502 5.08334Z" stroke="white" stroke-opacity="0.3" stroke-linecap="round" stroke-linejoin="round"/>
<path d="M4.66667 0.5C2.375 0.5 0.5 2.375 0.5 4.66667C0.5 6.95833 2.375 8.83333 4.66667 8.83333C5.0525 8.83333 5.35333 8.5225 5.35333 8.13C5.35333 7.94792 5.27833 7.78208 5.17125 7.66125C5.05042 7.54083 4.98875 7.38958 4.98875 7.1925C4.98717 7.1008 5.00407 7.00971 5.03844 6.92468C5.0728 6.83964 5.12394 6.7624 5.18879 6.69754C5.25365 6.63269 5.33089 6.58155 5.41593 6.54719C5.50096 6.51282 5.59205 6.49592 5.68375 6.4975H6.51542C7.78667 6.4975 8.83 5.45458 8.83 4.18333C8.81875 2.17167 6.94208 0.5 4.66667 0.5Z" stroke="white" stroke-opacity="0.3" stroke-linecap="round" stroke-linejoin="round"/>
</svg>
