<svg width="13" height="14" viewBox="0 0 13 14" fill="none" xmlns="http://www.w3.org/2000/svg">
<path d="M9.55556 13H10.7778C11.0833 13 11.3889 12.88 11.6333 12.64C11.8778 12.4 12 12.1 12 11.8V4.3L8.63889 1H3.44444C3.13889 1 2.83333 1.12 2.58889 1.36C2.34444 1.6 2.22222 1.9 2.22222 2.2V4M8.33333 1V4.6H12M5.58333 10.3L4.66667 9.55V8.2M8.33333 9.4C8.33333 11.3882 6.69171 13 4.66667 13C2.64162 13 1 11.3882 1 9.4C1 7.41178 2.64162 5.8 4.66667 5.8C6.69171 5.8 8.33333 7.41178 8.33333 9.4Z" stroke="currentColor"  stroke-linecap="round" stroke-linejoin="round"/>
</svg>
