<svg width="12" height="12" viewBox="0 0 12 12" fill="none" xmlns="http://www.w3.org/2000/svg">
<path d="M11 8.77778V9.88889C11 10.1836 10.8829 10.4662 10.6746 10.6746C10.4662 10.8829 10.1836 11 9.88889 11L2.11111 11C1.81643 11 1.53381 10.8829 1.32544 10.6746C1.11706 10.4662 1 10.1836 1 9.88889L1 8.77778M11 3.22222V2.11111C11 1.81643 10.8829 1.53381 10.6746 1.32544C10.4662 1.11706 10.1836 1 9.88889 1L2.11111 1C1.81643 1 1.53381 1.11706 1.32544 1.32544C1.11706 1.53381 1 1.81643 1 2.11111L1 3.22222M2.11111 6C2.11111 6 3.525 3.22222 6 3.22222C8.47444 3.22222 9.88889 6 9.88889 6C9.88889 6 8.47444 8.77778 6 8.77778C3.525 8.77778 2.11111 6 2.11111 6ZM6 6.55556C6.14734 6.55556 6.28865 6.49702 6.39284 6.39284C6.49702 6.28865 6.55556 6.14734 6.55556 6C6.55556 5.85266 6.49702 5.71135 6.39284 5.60716C6.28865 5.50298 6.14734 5.44444 6 5.44444C5.85266 5.44444 5.71135 5.50298 5.60716 5.60716C5.50298 5.71135 5.44444 5.85266 5.44444 6C5.44444 6.14734 5.50298 6.28865 5.60716 6.39284C5.71135 6.49702 5.85266 6.55556 6 6.55556Z" stroke="#BFA601" stroke-opacity="0.5" stroke-linecap="round" stroke-linejoin="round"/>
</svg>
