<svg width="15" height="14" viewBox="0 0 15 14" fill="none" xmlns="http://www.w3.org/2000/svg">
<path d="M9.25 1L6.5 3.75L3.75 1M2.1 3.75H10.9C11.5075 3.75 12 4.24249 12 4.85V10.9C12 11.5075 11.5075 12 10.9 12H2.1C1.49249 12 1 11.5075 1 10.9V4.85C1 4.24249 1.49249 3.75 2.1 3.75Z" stroke="#987936" stroke-opacity="0.3" stroke-linecap="round" stroke-linejoin="round"/>
<path d="M11.25 2L8.5 4.75L5.75 2M4.1 4.75H12.9C13.5075 4.75 14 5.24249 14 5.85V11.9C14 12.5075 13.5075 13 12.9 13H4.1C3.49249 13 3 12.5075 3 11.9V5.85C3 5.24249 3.49249 4.75 4.1 4.75Z" stroke="#987936" stroke-linecap="round" stroke-linejoin="round"/>
</svg>
