<svg width="14" height="13" viewBox="0 0 14 13" fill="none" xmlns="http://www.w3.org/2000/svg">
<path d="M7 10.481L4.618 11.835C4.43136 11.9413 4.21773 11.9975 4 11.9975C3.78227 11.9975 3.56864 11.9413 3.382 11.835L1.582 10.811C1.40485 10.7101 1.2582 10.5675 1.15623 10.3971C1.05427 10.2266 1.00045 10.0341 1 9.83819V7.99496C1.00045 7.79901 1.05427 7.6065 1.15623 7.43606C1.2582 7.26563 1.40485 7.12305 1.582 7.02214L4 5.64541M7 10.481V7.3521M7 10.481L9.382 11.835C9.56864 11.9413 9.78227 11.9975 10 11.9975C10.2177 11.9975 10.4314 11.9413 10.618 11.835L12.418 10.811C12.5951 10.7101 12.7418 10.5675 12.8438 10.3971C12.9457 10.2266 12.9995 10.0341 13 9.83819V7.99496C12.9995 7.79901 12.9457 7.6065 12.8438 7.43606C12.7418 7.26563 12.5951 7.12305 12.418 7.02214L10 5.64541M7 7.3521L4 5.64541M7 7.3521L4 9.0588M7 7.3521L10 5.64541M7 7.3521L10 9.0588M7 7.3521V4.22316M4 5.64541V3.15932C4.00045 2.96338 4.05427 2.77086 4.15623 2.60043C4.2582 2.42999 4.40485 2.28742 4.582 2.18651L6.382 1.16249C6.56864 1.05617 6.78227 1 7 1C7.21773 1 7.43136 1.05617 7.618 1.16249L9.418 2.18651C9.59515 2.28742 9.7418 2.42999 9.84377 2.60043C9.94573 2.77086 9.99955 2.96338 10 3.15932V5.64541M4 9.0588L1.156 7.43744M4 9.0588V12M10 9.0588L12.844 7.43744M10 9.0588V12M7 4.22316L4.156 2.6018M7 4.22316L9.844 2.6018" stroke="#FF80D4" stroke-opacity="0.5" stroke-linecap="round" stroke-linejoin="round"/>
</svg>
