<svg width="12" height="13" viewBox="0 0 12 13" fill="none" xmlns="http://www.w3.org/2000/svg">
<path d="M1.16111 3.74915L6 6.49944M6 6.49944L10.8389 3.74915M6 6.49944V12M11 8.69966V4.29921C10.9998 4.10629 10.9484 3.91682 10.8509 3.74979C10.7533 3.58277 10.6132 3.44407 10.4444 3.34761L6.55556 1.14739C6.38665 1.05083 6.19504 1 6 1C5.80496 1 5.61335 1.05083 5.44444 1.14739L1.55556 3.34761C1.38681 3.44407 1.24666 3.58277 1.14915 3.74979C1.05163 3.91682 1.0002 4.10629 1 4.29921V8.69966C1.0002 8.89258 1.05163 9.08205 1.14915 9.24908C1.24666 9.4161 1.38681 9.5548 1.55556 9.65126L5.44444 11.8515C5.61335 11.948 5.80496 11.9989 6 11.9989C6.19504 11.9989 6.38665 11.948 6.55556 11.8515L10.4444 9.65126C10.6132 9.5548 10.7533 9.4161 10.8509 9.24908C10.9484 9.08205 10.9998 8.89258 11 8.69966Z" stroke="#FF80D4" stroke-opacity="0.5" stroke-linecap="round" stroke-linejoin="round"/>
</svg>
