<svg width="15" height="14" viewBox="0 0 15 14" fill="none" xmlns="http://www.w3.org/2000/svg">
<path d="M1 4.66667H13M1 8.33333H13M5 4.66667V12M9 4.66667V12M2.33333 1H11.6667C12.403 1 13 1.54721 13 2.22222V10.7778C13 11.4528 12.403 12 11.6667 12H2.33333C1.59695 12 1 11.4528 1 10.7778V2.22222C1 1.54721 1.59695 1 2.33333 1Z" stroke="#80BEFF" stroke-opacity="0.2" stroke-linecap="round" stroke-linejoin="round"/>
<path d="M3 5.66667H14M3 9.33333H14M6.66667 5.66667V13M10.3333 5.66667V13M4.22222 2H12.7778C13.4528 2 14 2.54721 14 3.22222V11.7778C14 12.4528 13.4528 13 12.7778 13H4.22222C3.54721 13 3 12.4528 3 11.7778V3.22222C3 2.54721 3.54721 2 4.22222 2Z" stroke="#47668B" stroke-linecap="round" stroke-linejoin="round"/>
</svg>
