<svg width="12" height="11" viewBox="0 0 12 11" fill="none" xmlns="http://www.w3.org/2000/svg">
<path d="M6 10L6 3.25M6 3.25L8 5.5M6 3.25L4 5.5M8 8.875L10 8.875C10.2652 8.875 10.5196 8.75647 10.7071 8.5455C10.8946 8.33452 11 8.04837 11 7.75L11 2.125C11 1.82663 10.8946 1.54048 10.7071 1.32951C10.5196 1.11853 10.2652 1 10 1L2 0.999999C1.73478 0.999999 1.48043 1.11853 1.29289 1.3295C1.10536 1.54048 1 1.82663 1 2.125L1 7.75C1 8.04837 1.10536 8.33452 1.29289 8.54549C1.48043 8.75647 1.73478 8.875 2 8.875L4 8.875" stroke="currentColor" stroke-linecap="round" stroke-linejoin="round"/>
</svg>
